<?xml version="1.0" encoding="UTF-8"?>
<svg id="Layer_1" xmlns="http://www.w3.org/2000/svg" version="1.1" viewBox="0 0 204.91 62.54">
  <!-- Generator: Adobe Illustrator 29.0.0, SVG Export Plug-In . SVG Version: 2.1.0 Build 186)  -->
  <defs>
    <style>
      .st0 {
        fill: #39472d;
      }

      .st1 {
        fill: #ffffd8;
      }

      .st2 {
        fill: #82d853;
      }
    </style>
  </defs>
  <g>
    <path class="st2" d="M136.11.94h5.06v34.89h4.17v7.53h-4.17v18.24h-7.53v-18.24h-12.85v-4.25L136.11.94ZM133.64,23.16l-5.17,12.67h5.17v-12.67Z"/>
    <path class="st0" d="M142.11,62.54h-9.42v-18.24h-12.85v-5.37l.07-.17L135.47,0h6.64v34.89h4.17v9.42h-4.17v18.24ZM134.58,60.65h5.64v-18.24h4.17v-5.64h-4.17V1.89h-3.48l-15.01,37.41v3.12h12.85v18.24ZM134.58,36.77h-7.51l7.51-18.43v18.43ZM129.88,34.89h2.82v-6.92l-2.82,6.92Z"/>
  </g>
  <g>
    <g>
      <path class="st1" d="M1.28,43.3v-4.74c1.46.85,2.69,1.28,3.69,1.28.58,0,1.04-.16,1.37-.48.33-.32.5-.75.5-1.27,0-.41-.13-.79-.4-1.14-.27-.36-.73-.79-1.4-1.3-1.6-1.22-2.75-2.36-3.47-3.41-.72-1.05-1.08-2.22-1.08-3.52,0-1.76.55-3.19,1.66-4.3s2.54-1.66,4.3-1.66c1.3,0,2.59.28,3.87.84v4.56c-1.37-.75-2.49-1.13-3.34-1.13-.57,0-1.02.14-1.35.42-.33.28-.5.66-.5,1.15,0,.85.77,1.82,2.3,2.88.91.63,1.84,1.52,2.78,2.66.94,1.14,1.41,2.47,1.41,3.97,0,1.76-.62,3.21-1.85,4.37s-2.79,1.73-4.68,1.73c-1.29,0-2.57-.3-3.84-.92Z"/>
      <path class="st0" d="M5.12,44.71c-1.36,0-2.73-.32-4.06-.96l-.28-.14v-5.93l.75.44c2.07,1.21,3.74,1.56,4.47.87.23-.22.35-.52.35-.91,0-.3-.1-.57-.3-.84-.24-.32-.68-.72-1.3-1.2-1.63-1.25-2.83-2.43-3.58-3.52-.77-1.13-1.16-2.41-1.16-3.8,0-1.89.61-3.45,1.81-4.65,1.2-1.2,2.77-1.81,4.65-1.81,1.37,0,2.74.3,4.07.88l.3.13v5.73l-.74-.41c-2.05-1.13-3.48-1.31-4.13-.77-.22.18-.32.43-.32.77,0,.47.36,1.27,2.09,2.47.95.65,1.92,1.58,2.88,2.75,1.01,1.23,1.52,2.67,1.52,4.29,0,1.89-.67,3.49-2,4.73-1.32,1.24-3.01,1.87-5.02,1.87ZM1.78,42.98c1.1.49,2.23.74,3.34.74,1.78,0,3.2-.52,4.34-1.59,1.14-1.07,1.69-2.38,1.69-4,0-1.4-.42-2.59-1.3-3.66-.91-1.1-1.81-1.96-2.68-2.57-1.7-1.18-2.52-2.26-2.52-3.29,0-.64.23-1.16.67-1.53.91-.76,2.4-.75,4.51.27v-3.41c-1.11-.45-2.25-.67-3.37-.67-1.64,0-2.93.5-3.95,1.52s-1.52,2.31-1.52,3.95c0,1.18.33,2.27.99,3.23.68,1,1.81,2.11,3.36,3.29.7.54,1.19,1,1.49,1.39.34.44.51.93.51,1.45,0,.67-.22,1.22-.66,1.63-.99.94-2.73.8-4.91-.32v3.58Z"/>
    </g>
    <g>
      <path class="st1" d="M25.65,38.88v4.83c-.98.32-1.85.47-2.62.47-2.67,0-4.84-1-6.5-3.01-1.66-2.01-2.49-4.65-2.49-7.92,0-3.04.84-5.55,2.52-7.53,1.68-1.98,3.8-2.97,6.36-2.97,1,0,1.91.13,2.75.4v4.85c-.88-.29-1.72-.44-2.5-.44-1.2,0-2.2.55-2.99,1.65s-1.19,2.5-1.19,4.19c0,1.83.4,3.28,1.2,4.34.8,1.06,1.86,1.59,3.19,1.59.65,0,1.41-.15,2.29-.46Z"/>
      <path class="st0" d="M23.03,44.68c-2.82,0-5.13-1.07-6.89-3.19-1.73-2.09-2.61-4.86-2.61-8.24,0-3.15.89-5.79,2.63-7.85,1.77-2.08,4.04-3.14,6.74-3.14,1.04,0,2.02.14,2.9.42l.35.11v5.91l-.66-.22c-.83-.28-1.62-.42-2.34-.42-1.04,0-1.88.47-2.58,1.44-.73,1.01-1.09,2.32-1.09,3.9,0,1.71.37,3.07,1.1,4.04.7.94,1.62,1.39,2.79,1.39.59,0,1.31-.14,2.12-.43l.66-.23v5.9l-.35.11c-1.02.33-1.95.5-2.78.5ZM22.9,23.26c-2.43,0-4.39.91-5.98,2.79-1.59,1.88-2.4,4.3-2.4,7.2,0,3.14.8,5.7,2.38,7.6,1.58,1.9,3.58,2.83,6.12,2.83.63,0,1.34-.12,2.12-.34v-3.78c-.66.18-1.26.28-1.79.28-1.49,0-2.7-.6-3.59-1.79-.86-1.14-1.3-2.7-1.3-4.64,0-1.8.43-3.31,1.28-4.49.89-1.23,2.03-1.85,3.39-1.85.63,0,1.31.09,2,.27v-3.8c-.69-.18-1.44-.27-2.25-.27Z"/>
    </g>
    <g>
      <path class="st1" d="M28.64,23.32h4.62v7.55h4.1v-7.55h4.62v20.36h-4.62v-8.46h-4.1v8.46h-4.62v-20.36Z"/>
      <path class="st0" d="M42.48,44.18h-5.62v-8.46h-3.1v8.46h-5.62v-21.36h5.62v7.55h3.1v-7.55h5.62v21.36ZM37.86,43.18h3.62v-19.36h-3.62v7.55h-5.1v-7.55h-3.62v19.36h3.62v-8.46h5.1v8.46Z"/>
    </g>
    <g>
      <path class="st1" d="M46.34,23.32h9.35v4.33h-4.73v3.75h4.1v4.22h-4.1v3.71h4.76v4.35h-9.38v-20.36Z"/>
      <path class="st0" d="M56.22,44.18h-10.38v-21.36h10.35v5.33h-4.73v2.75h4.1v5.22h-4.1v2.71h4.76v5.35ZM46.84,43.18h8.38v-3.35h-4.76v-4.71h4.1v-3.22h-4.1v-4.75h4.73v-3.33h-8.35v19.36Z"/>
    </g>
    <g>
      <path class="st1" d="M59.37,23.32h4.32c2.99,0,5.26.85,6.82,2.55,1.56,1.7,2.33,4.19,2.33,7.46,0,2.48-.38,4.48-1.15,6.01-.77,1.52-1.84,2.63-3.22,3.31-1.38.68-2.9,1.02-4.57,1.02h-4.53v-20.36ZM63.99,27.65v11.68c1.4-.12,2.39-.62,2.97-1.49.58-.87.87-2.3.87-4.29,0-1.18-.1-2.18-.31-3-.2-.82-.51-1.45-.91-1.89-.4-.44-.79-.71-1.17-.82-.38-.1-.87-.17-1.46-.2Z"/>
      <path class="st0" d="M63.89,44.18h-5.03v-21.36h4.82c3.12,0,5.54.91,7.19,2.72,1.64,1.79,2.46,4.42,2.46,7.8,0,2.55-.41,4.64-1.21,6.23-.81,1.62-1.97,2.81-3.44,3.53-1.44.71-3.05,1.07-4.79,1.07ZM59.87,43.18h4.03c1.58,0,3.04-.33,4.35-.97,1.27-.63,2.28-1.67,2.99-3.08.73-1.45,1.1-3.4,1.1-5.78,0-3.13-.74-5.53-2.2-7.13-1.45-1.59-3.62-2.39-6.45-2.39h-3.82v19.36ZM63.49,39.88v-12.75l.53.03c.62.03,1.14.1,1.56.21.48.13.94.44,1.42.96.46.5.8,1.21,1.02,2.11.21.85.32,1.9.32,3.12,0,2.11-.31,3.61-.95,4.57-.67,1-1.79,1.57-3.35,1.71l-.54.05ZM64.49,28.19v10.57c.96-.17,1.64-.56,2.06-1.19.52-.78.79-2.13.79-4.02,0-1.13-.1-2.1-.29-2.88-.18-.73-.45-1.3-.79-1.68-.33-.37-.65-.59-.93-.67-.23-.06-.51-.11-.83-.14Z"/>
    </g>
    <g>
      <path class="st1" d="M75.82,23.32h4.74v14.33c0,.67.18,1.2.53,1.59.36.39.83.59,1.43.59s1.11-.21,1.47-.63c.36-.42.54-.99.54-1.72v-14.17h4.71v13.36c0,1.82-.24,3.28-.72,4.38-.48,1.1-1.18,1.9-2.11,2.42-.93.51-2.23.77-3.9.77-2.46,0-4.19-.63-5.2-1.89-1.01-1.26-1.51-3.39-1.51-6.39v-12.64Z"/>
      <path class="st0" d="M82.53,44.74c-2.61,0-4.49-.7-5.59-2.08-1.09-1.37-1.62-3.56-1.62-6.7v-13.14h5.74v14.83c0,.55.13.96.4,1.26.26.29.61.42,1.06.42s.83-.15,1.09-.45c.28-.32.42-.79.42-1.4v-14.67h5.71v13.86c0,1.88-.25,3.42-.76,4.58-.52,1.2-1.3,2.09-2.33,2.66-1,.55-2.39.83-4.14.83ZM76.32,23.82v12.14c0,2.87.47,4.91,1.4,6.08.9,1.13,2.52,1.7,4.81,1.7,1.57,0,2.8-.24,3.66-.71.84-.46,1.46-1.18,1.89-2.18.45-1.03.67-2.43.67-4.18v-12.86h-3.71v13.67c0,.85-.22,1.54-.66,2.05-.46.53-1.08.8-1.85.8s-1.35-.25-1.8-.75c-.44-.48-.66-1.13-.66-1.93v-13.83h-3.74Z"/>
    </g>
    <g>
      <path class="st1" d="M93.43,23.32h4.62v15.65h3.66v4.71h-8.28v-20.36Z"/>
      <path class="st0" d="M102.21,44.18h-9.28v-21.36h5.62v15.65h3.66v5.71ZM93.93,43.18h7.28v-3.71h-3.66v-15.65h-3.62v19.36Z"/>
    </g>
    <g>
      <path class="st1" d="M104.84,23.32h9.35v4.33h-4.73v3.75h4.1v4.22h-4.1v3.71h4.76v4.35h-9.38v-20.36Z"/>
      <path class="st0" d="M114.72,44.18h-10.38v-21.36h10.35v5.33h-4.73v2.75h4.1v5.22h-4.1v2.71h4.76v5.35ZM105.34,43.18h8.38v-3.35h-4.76v-4.71h4.1v-3.22h-4.1v-4.75h4.73v-3.33h-8.35v19.36Z"/>
    </g>
  </g>
  <g>
    <g>
      <path class="st1" d="M150.6,23.32h5.38c2.18,0,3.89.56,5.15,1.68s1.89,2.64,1.89,4.56c0,.99-.24,1.94-.72,2.86-.48.92-1.17,1.61-2.09,2.08l3.69,9.18h-4.88l-3.74-9.27h-.08v9.27h-4.62v-20.36ZM155.23,27.25v4.83c2.04-.04,3.07-.76,3.07-2.15,0-.95-.24-1.62-.71-2.03-.47-.41-1.26-.63-2.36-.66Z"/>
      <path class="st0" d="M164.66,44.18h-5.96l-2.97-7.38v7.38h-5.62v-21.36h5.88c2.29,0,4.14.61,5.49,1.8,1.37,1.21,2.06,2.87,2.06,4.93,0,1.06-.26,2.1-.77,3.09-.45.87-1.09,1.57-1.91,2.07l3.8,9.46ZM159.38,43.18h3.8l-3.58-8.92.41-.21c.83-.42,1.44-1.03,1.87-1.87.44-.84.66-1.73.66-2.63,0-1.79-.56-3.16-1.72-4.19-1.16-1.03-2.78-1.55-4.82-1.55h-4.88v19.36h3.62v-9.27h.84l.2.31,3.61,8.96ZM154.73,32.6v-5.86h.51c1.23.05,2.1.3,2.67.79.59.5.88,1.31.88,2.41,0,1.18-.62,2.59-3.56,2.65h-.51ZM155.73,27.79v3.78c2.07-.19,2.07-1.22,2.07-1.62,0-.79-.18-1.34-.54-1.65-.31-.27-.82-.44-1.53-.5Z"/>
    </g>
    <g>
      <path class="st1" d="M166.53,23.32h9.35v4.33h-4.73v3.75h4.1v4.22h-4.1v3.71h4.76v4.35h-9.38v-20.36Z"/>
      <path class="st0" d="M176.4,44.18h-10.38v-21.36h10.35v5.33h-4.73v2.75h4.1v5.22h-4.1v2.71h4.76v5.35ZM167.03,43.18h8.38v-3.35h-4.76v-4.71h4.1v-3.22h-4.1v-4.75h4.73v-3.33h-8.35v19.36Z"/>
    </g>
    <g>
      <path class="st1" d="M193.79,43.68h-4.8l-.78-3.4h-4.88l-.81,3.4h-4.71l5.4-20.36h5.18l5.4,20.36ZM187.33,36.62c-.69-3.03-1.21-5.91-1.56-8.65h-.06c-.37,2.82-.88,5.7-1.54,8.65h3.16Z"/>
      <path class="st0" d="M194.44,44.18h-5.85l-.78-3.4h-4.09l-.81,3.4h-5.76l5.66-21.36h5.95l5.66,21.36ZM189.39,43.18h3.76l-5.13-19.36h-4.42l-5.13,19.36h3.67l.81-3.4h5.67l.78,3.4ZM187.95,37.12h-4.41l.14-.61c.66-2.92,1.17-5.82,1.53-8.6l.06-.44h.88l.12.44c.34,2.71.86,5.6,1.55,8.6l.14.61ZM184.79,36.12h1.91c-.37-1.68-.7-3.33-.96-4.93-.27,1.62-.59,3.27-.95,4.93Z"/>
    </g>
    <g>
      <path class="st1" d="M196.13,23.32h4.62v15.65h3.66v4.71h-8.28v-20.36Z"/>
      <path class="st0" d="M204.91,44.18h-9.28v-21.36h5.62v15.65h3.66v5.71ZM196.63,43.18h7.28v-3.71h-3.66v-15.65h-3.62v19.36Z"/>
    </g>
  </g>
</svg>